<mxfile host="app.diagrams.net" modified="2020-11-23T10:46:06.911Z" agent="5.0 (Windows)" etag="ZMBLQ1dU272I3YDFn83o" version="13.10.1" type="github">
  <diagram id="-xse0hwoMhOeSi4ZH7fx" name="Page-1">
    <mxGraphModel dx="1038" dy="547" grid="1" gridSize="10" guides="1" tooltips="1" connect="1" arrows="1" fold="1" page="1" pageScale="1" pageWidth="850" pageHeight="1100" math="0" shadow="0">
      <root>
        <mxCell id="0" />
        <mxCell id="1" parent="0" />
        <mxCell id="fU1oLNT5Ig02s8Rlk26W-5" style="edgeStyle=orthogonalEdgeStyle;rounded=0;orthogonalLoop=1;jettySize=auto;html=1;entryX=0.5;entryY=0;entryDx=0;entryDy=0;" edge="1" parent="1" source="fU1oLNT5Ig02s8Rlk26W-1" target="fU1oLNT5Ig02s8Rlk26W-3">
          <mxGeometry relative="1" as="geometry" />
        </mxCell>
        <mxCell id="fU1oLNT5Ig02s8Rlk26W-6" style="edgeStyle=orthogonalEdgeStyle;rounded=0;orthogonalLoop=1;jettySize=auto;html=1;" edge="1" parent="1" source="fU1oLNT5Ig02s8Rlk26W-1" target="fU1oLNT5Ig02s8Rlk26W-2">
          <mxGeometry relative="1" as="geometry" />
        </mxCell>
        <mxCell id="fU1oLNT5Ig02s8Rlk26W-7" style="edgeStyle=orthogonalEdgeStyle;rounded=0;orthogonalLoop=1;jettySize=auto;html=1;entryX=0.5;entryY=0;entryDx=0;entryDy=0;" edge="1" parent="1" source="fU1oLNT5Ig02s8Rlk26W-1" target="fU1oLNT5Ig02s8Rlk26W-4">
          <mxGeometry relative="1" as="geometry" />
        </mxCell>
        <mxCell id="fU1oLNT5Ig02s8Rlk26W-1" value="&lt;div&gt;Components&lt;/div&gt;" style="rounded=0;whiteSpace=wrap;html=1;" vertex="1" parent="1">
          <mxGeometry x="365" y="10" width="120" height="60" as="geometry" />
        </mxCell>
        <mxCell id="fU1oLNT5Ig02s8Rlk26W-10" style="edgeStyle=orthogonalEdgeStyle;rounded=0;orthogonalLoop=1;jettySize=auto;html=1;" edge="1" parent="1" source="fU1oLNT5Ig02s8Rlk26W-2" target="fU1oLNT5Ig02s8Rlk26W-8">
          <mxGeometry relative="1" as="geometry" />
        </mxCell>
        <mxCell id="fU1oLNT5Ig02s8Rlk26W-11" style="edgeStyle=orthogonalEdgeStyle;rounded=0;orthogonalLoop=1;jettySize=auto;html=1;" edge="1" parent="1" source="fU1oLNT5Ig02s8Rlk26W-2" target="fU1oLNT5Ig02s8Rlk26W-9">
          <mxGeometry relative="1" as="geometry" />
        </mxCell>
        <mxCell id="fU1oLNT5Ig02s8Rlk26W-2" value="ui" style="rounded=0;whiteSpace=wrap;html=1;" vertex="1" parent="1">
          <mxGeometry x="70" y="110" width="120" height="60" as="geometry" />
        </mxCell>
        <mxCell id="fU1oLNT5Ig02s8Rlk26W-16" style="edgeStyle=orthogonalEdgeStyle;rounded=0;orthogonalLoop=1;jettySize=auto;html=1;" edge="1" parent="1" source="fU1oLNT5Ig02s8Rlk26W-3" target="fU1oLNT5Ig02s8Rlk26W-12">
          <mxGeometry relative="1" as="geometry" />
        </mxCell>
        <mxCell id="fU1oLNT5Ig02s8Rlk26W-17" style="edgeStyle=orthogonalEdgeStyle;rounded=0;orthogonalLoop=1;jettySize=auto;html=1;" edge="1" parent="1" source="fU1oLNT5Ig02s8Rlk26W-3" target="fU1oLNT5Ig02s8Rlk26W-13">
          <mxGeometry relative="1" as="geometry" />
        </mxCell>
        <mxCell id="fU1oLNT5Ig02s8Rlk26W-3" value="Physics" style="rounded=0;whiteSpace=wrap;html=1;" vertex="1" parent="1">
          <mxGeometry x="365" y="110" width="120" height="60" as="geometry" />
        </mxCell>
        <mxCell id="fU1oLNT5Ig02s8Rlk26W-18" style="edgeStyle=orthogonalEdgeStyle;rounded=0;orthogonalLoop=1;jettySize=auto;html=1;" edge="1" parent="1" source="fU1oLNT5Ig02s8Rlk26W-4" target="fU1oLNT5Ig02s8Rlk26W-14">
          <mxGeometry relative="1" as="geometry" />
        </mxCell>
        <mxCell id="fU1oLNT5Ig02s8Rlk26W-19" style="edgeStyle=orthogonalEdgeStyle;rounded=0;orthogonalLoop=1;jettySize=auto;html=1;entryX=0.5;entryY=0;entryDx=0;entryDy=0;" edge="1" parent="1" source="fU1oLNT5Ig02s8Rlk26W-4" target="fU1oLNT5Ig02s8Rlk26W-15">
          <mxGeometry relative="1" as="geometry" />
        </mxCell>
        <mxCell id="fU1oLNT5Ig02s8Rlk26W-4" value="&lt;div&gt;texture&lt;/div&gt;" style="rounded=0;whiteSpace=wrap;html=1;" vertex="1" parent="1">
          <mxGeometry x="660" y="110" width="120" height="60" as="geometry" />
        </mxCell>
        <mxCell id="fU1oLNT5Ig02s8Rlk26W-8" value="Button" style="rounded=0;whiteSpace=wrap;html=1;" vertex="1" parent="1">
          <mxGeometry y="220" width="120" height="60" as="geometry" />
        </mxCell>
        <mxCell id="fU1oLNT5Ig02s8Rlk26W-9" value="Menu" style="rounded=0;whiteSpace=wrap;html=1;" vertex="1" parent="1">
          <mxGeometry x="140" y="220" width="120" height="60" as="geometry" />
        </mxCell>
        <mxCell id="fU1oLNT5Ig02s8Rlk26W-12" value="Collision" style="rounded=0;whiteSpace=wrap;html=1;" vertex="1" parent="1">
          <mxGeometry x="290" y="220" width="120" height="60" as="geometry" />
        </mxCell>
        <mxCell id="fU1oLNT5Ig02s8Rlk26W-13" value="Movement" style="rounded=0;whiteSpace=wrap;html=1;" vertex="1" parent="1">
          <mxGeometry x="440" y="220" width="120" height="60" as="geometry" />
        </mxCell>
        <mxCell id="fU1oLNT5Ig02s8Rlk26W-14" value="Tex2d" style="rounded=0;whiteSpace=wrap;html=1;" vertex="1" parent="1">
          <mxGeometry x="590" y="220" width="120" height="60" as="geometry" />
        </mxCell>
        <mxCell id="fU1oLNT5Ig02s8Rlk26W-15" value="&lt;div&gt;Colour Shapes&lt;/div&gt;" style="rounded=0;whiteSpace=wrap;html=1;" vertex="1" parent="1">
          <mxGeometry x="730" y="220" width="120" height="60" as="geometry" />
        </mxCell>
      </root>
    </mxGraphModel>
  </diagram>
</mxfile>
